<svg xmlns="http://www.w3.org/2000/svg" viewBox="0 0 720 520" font-family="monospace, sans-serif" font-size="13">

  <!-- Definitions -->
  <defs>
    <marker id="arrow" markerWidth="8" markerHeight="8" refX="6" refY="3" orient="auto">
      <path d="M0,0 L0,6 L8,3 z" fill="#555"/>
    </marker>
    <marker id="arrow-blue" markerWidth="8" markerHeight="8" refX="6" refY="3" orient="auto">
      <path d="M0,0 L0,6 L8,3 z" fill="#3b82f6"/>
    </marker>
    <marker id="arrow-green" markerWidth="8" markerHeight="8" refX="6" refY="3" orient="auto">
      <path d="M0,0 L0,6 L8,3 z" fill="#22c55e"/>
    </marker>
    <marker id="arrow-orange" markerWidth="8" markerHeight="8" refX="6" refY="3" orient="auto">
      <path d="M0,0 L0,6 L8,3 z" fill="#f97316"/>
    </marker>
  </defs>

  <!-- Background -->
  <rect width="720" height="520" fill="#f8fafc" rx="8"/>

  <!-- ── Mock Linux Device box ── -->
  <rect x="20" y="20" width="680" height="280" rx="10" fill="#f1f5f9" stroke="#94a3b8" stroke-width="2" stroke-dasharray="8,4"/>
  <text x="36" y="44" fill="#64748b" font-size="12" font-weight="bold">Mock Linux Device (Docker)</text>

  <!-- Agent box -->
  <rect x="60" y="70" width="200" height="90" rx="8" fill="#dbeafe" stroke="#3b82f6" stroke-width="2"/>
  <text x="160" y="100" text-anchor="middle" fill="#1d4ed8" font-weight="bold">Agent</text>
  <text x="160" y="118" text-anchor="middle" fill="#1d4ed8" font-size="11">:9999 HTTP API</text>
  <text x="160" y="136" text-anchor="middle" fill="#1d4ed8" font-size="11">MQTT client</text>
  <text x="160" y="152" text-anchor="middle" fill="#1d4ed8" font-size="11">clientid: &lt;id&gt;</text>

  <!-- FluxMQ box -->
  <rect x="60" y="210" width="200" height="70" rx="8" fill="#f0fdf4" stroke="#22c55e" stroke-width="2"/>
  <text x="160" y="243" text-anchor="middle" fill="#15803d" font-weight="bold">FluxMQ</text>
  <text x="160" y="261" text-anchor="middle" fill="#15803d" font-size="11">:5682 AMQP (internal only)</text>

  <!-- Node-RED box -->
  <rect x="460" y="70" width="210" height="90" rx="8" fill="#fef3c7" stroke="#f59e0b" stroke-width="2"/>
  <text x="565" y="100" text-anchor="middle" fill="#92400e" font-weight="bold">Node-RED</text>
  <text x="565" y="118" text-anchor="middle" fill="#92400e" font-size="11">:1880 UI + REST API</text>
  <text x="565" y="136" text-anchor="middle" fill="#92400e" font-size="11">MQTT client</text>
  <text x="565" y="152" text-anchor="middle" fill="#92400e" font-size="11">clientid: &lt;id&gt;-nr</text>

  <!-- Agent → Node-RED HTTP arrow -->
  <line x1="260" y1="110" x2="458" y2="110" stroke="#555" stroke-width="1.5" marker-end="url(#arrow)"/>
  <rect x="298" y="90" width="90" height="18" rx="4" fill="#f8fafc"/>
  <text x="343" y="103" text-anchor="middle" fill="#374151" font-size="11">HTTP (deploy)</text>

  <!-- Agent → FluxMQ arrow -->
  <line x1="160" y1="160" x2="160" y2="208" stroke="#22c55e" stroke-width="1.5" marker-end="url(#arrow-green)"/>
  <text x="174" y="190" fill="#15803d" font-size="11">heartbeat</text>

  <!-- Cloud MQTT box -->
  <rect x="200" y="360" width="320" height="80" rx="8" fill="#ede9fe" stroke="#8b5cf6" stroke-width="2"/>
  <text x="360" y="393" text-anchor="middle" fill="#5b21b6" font-weight="bold">Magistrala Cloud MQTT</text>
  <text x="360" y="413" text-anchor="middle" fill="#5b21b6" font-size="11">messaging.&lt;host&gt;:8883 (TLS)</text>

  <!-- Agent → Cloud MQTT arrow (left side going down) -->
  <path d="M 130 160 L 130 330 L 280 330 L 280 358" fill="none" stroke="#3b82f6" stroke-width="1.5" marker-end="url(#arrow-blue)"/>
  <rect x="55" y="235" width="80" height="18" rx="4" fill="#f8fafc"/>
  <text x="95" y="248" text-anchor="middle" fill="#1d4ed8" font-size="11">MQTT/TLS</text>

  <!-- Node-RED → Cloud MQTT arrow (right side going down) -->
  <path d="M 590 160 L 590 330 L 440 330 L 440 358" fill="none" stroke="#f97316" stroke-width="1.5" marker-end="url(#arrow-orange)"/>
  <rect x="560" y="235" width="80" height="18" rx="4" fill="#f8fafc"/>
  <text x="600" y="248" text-anchor="middle" fill="#c2410c" font-size="11">MQTT/TLS</text>

  <!-- Magistrala Platform box -->
  <rect x="200" y="460" width="320" height="45" rx="8" fill="#fce7f3" stroke="#ec4899" stroke-width="2"/>
  <text x="360" y="487" text-anchor="middle" fill="#9d174d" font-weight="bold">Magistrala Platform</text>

  <!-- Cloud MQTT → Platform arrow -->
  <line x1="360" y1="440" x2="360" y2="458" stroke="#555" stroke-width="1.5" marker-end="url(#arrow)"/>

  <!-- Legend -->
  <rect x="20" y="318" width="152" height="95" rx="6" fill="white" stroke="#e2e8f0" stroke-width="1"/>
  <text x="30" y="336" fill="#374151" font-size="11" font-weight="bold">Legend</text>
  <line x1="30" y1="350" x2="60" y2="350" stroke="#555" stroke-width="1.5" marker-end="url(#arrow)"/>
  <text x="68" y="354" fill="#374151" font-size="11">HTTP</text>
  <line x1="30" y1="368" x2="60" y2="368" stroke="#3b82f6" stroke-width="1.5" marker-end="url(#arrow-blue)"/>
  <text x="68" y="372" fill="#374151" font-size="11">MQTT/TLS (agent)</text>
  <line x1="30" y1="386" x2="60" y2="386" stroke="#f97316" stroke-width="1.5" marker-end="url(#arrow-orange)"/>
  <text x="68" y="390" fill="#374151" font-size="11">MQTT/TLS (nodered)</text>
  <line x1="30" y1="404" x2="60" y2="404" stroke="#22c55e" stroke-width="1.5" marker-end="url(#arrow-green)"/>
  <text x="68" y="408" fill="#374151" font-size="11">FluxMQ/AMQP (internal)</text>

</svg>
